<svg width="69" height="60" viewBox="0 0 69 60" fill="none" xmlns="http://www.w3.org/2000/svg">
<path fill-rule="evenodd" clip-rule="evenodd" d="M6.3948 2.44586C4.16477 7.15486 3.65727 16.4689 5.36475 21.3459C5.73505 22.4037 6.12845 23.6723 6.23905 24.1653C6.50697 25.3614 9.98755 33.4606 11.3835 36.1372C12.7536 38.7638 12.7282 38.7899 10.1004 37.4539C6.3206 35.5324 3.34752 31.5824 2.05042 26.7591C1.13115 23.3407 0.00397348 23.2776 0.0772985 26.6486C0.205224 32.5287 5.17522 38.8138 12.5882 42.4706C15.5288 43.921 14.6779 42.7684 21.2467 54.2022C24.0457 59.0745 24.1808 59.2306 25.5972 59.2306C27.3561 59.2306 27.6071 58.8442 28.5953 54.6153C29.5972 50.3277 30.7228 46.6073 31.9289 43.5963L32.7948 41.4345L31.8533 40.1429C31.3355 39.4325 30.798 38.8501 30.6593 38.8486C30.1948 38.8438 28.0869 43.6094 26.7646 47.6533L25.4569 51.653L23.9027 49.3842C22.4623 47.2809 17.952 38.9478 16.8384 36.3318C12.847 26.9551 14.4788 15.6137 20.3028 12.2516C22.3567 11.0658 21.9794 9.60842 19.8173 10.3762C15.3945 11.9469 11.3867 18.6496 10.9586 25.1922C10.8617 26.6723 9.7457 24.0609 8.6236 19.7285C7.47227 15.2833 7.3727 6.6769 8.4353 3.47011C9.38888 0.592864 7.67895 -0.265472 6.3948 2.44586ZM59.6933 1.30964C59.574 1.59979 59.6634 2.85158 59.8918 4.09159C61.1044 10.6742 60.7708 16.6255 58.8924 21.923C57.5846 25.6111 57.0736 26.3961 57.0652 24.7303C57.0377 19.3636 53.3148 12.8505 49.0733 10.7487C45.9222 9.18735 45.6274 10.2682 48.518 12.785C56.5554 19.7832 54.8527 33.9086 44.1036 49.4041L42.5157 51.6931L41.9636 49.7887C40.4831 44.682 39.9738 43.3694 38.0497 39.7004L35.9766 35.7472L37.6433 33.7293C38.56 32.6196 40.4344 31.0319 41.8087 30.2011C43.183 29.3704 44.2428 28.5093 44.1637 28.2877C43.6667 26.8928 39.9378 28.4093 36.4521 31.4237L34.0308 33.5176L31.8846 31.5953C29.582 29.5329 25.8581 27.5442 24.6935 27.7553C23.4517 27.9802 23.6045 28.7777 25.0178 29.4482C31.5726 32.5581 36.2416 40.8257 39.5563 55.1921C40.3933 58.8195 40.6819 59.2306 42.3925 59.2306C43.7998 59.2306 43.9577 59.0613 46.1602 55.1921C47.5179 52.8071 51.0517 46.8559 52.3433 44.7795C52.8356 43.9878 54.1098 43.1054 56.201 42.108C62.3316 39.1837 67.1378 33.2909 68.1072 27.5106C68.7914 23.4291 67.2122 22.8182 66.0997 26.7341C64.7094 31.6285 61.3194 36.0253 57.5225 37.8593C55.6437 38.7669 55.6206 38.5908 57.1947 35.3474C64.3238 20.6584 65.7354 10.4058 61.7265 2.43344C61.0403 1.06886 60.0232 0.50672 59.6933 1.30964Z" fill="white"/>
</svg>
